<svg width="34" height="34" viewBox="0 0 34 34" fill="none" xmlns="http://www.w3.org/2000/svg">
<path fill-rule="evenodd" clip-rule="evenodd" d="M31.2653 0.171875H2.73515C1.75699 0.171875 0.964844 0.983343 0.964844 1.98536V31.2113C0.964844 32.2133 1.75699 33.0248 2.73515 33.0248H18.0938V20.3025H13.915V15.345H18.0938V11.6868C18.0938 7.44223 20.6242 5.13267 24.3204 5.13267C26.0907 5.13267 27.6108 5.26737 28.055 5.32814V9.76329H25.4925C23.4817 9.76329 23.0936 10.7423 23.0936 12.178V15.3434H27.8866L27.2612 20.3009H23.092V33.0248H31.2653C32.2434 33.0248 33.0356 32.2133 33.0356 31.2113V1.98536C33.0356 0.983343 32.2434 0.171875 31.2653 0.171875Z" fill="black"/>
</svg>
