<svg width="315" height="50" viewBox="0 0 315 50" fill="none" xmlns="http://www.w3.org/2000/svg">
<g clip-path="url(#clip0_292_4065)">
<path d="M38.4391 31.7749C35.9949 36.4596 31.1472 39.637 25.4849 39.637C17.419 39.637 10.9012 33.1192 10.9012 25.0533C10.9012 16.9875 17.419 10.4697 25.4849 10.4697C30.6991 10.4697 35.2616 13.199 37.828 17.3134L47.2382 12.5472C42.9608 5.05171 34.895 0.0411268 25.6478 0.0411268C11.9196 0.000390283 0.757812 11.1622 0.757812 24.8904C0.757812 38.6186 11.9196 49.7804 25.6478 49.7804C35.0987 49.7804 43.3274 44.5254 47.5233 36.7447L38.4391 31.7749Z" fill="white"/>
<path d="M89.7661 18.6975H67.6462V0.773438H57.3398V49.1684H67.8091V28.6372H89.7661V49.1684H100.032V1.1808H89.7661V18.6975Z" fill="white"/>
<path d="M129.281 0.773438L108.465 49.1277H118.282L123.049 38.4547H147.531L152.582 49.1277H162.278L141.258 0.773438H129.281ZM127.204 28.7187L135.392 9.7762L143.783 28.7187H127.163H127.204Z" fill="white"/>
<path d="M205.744 30.8777L184.48 1.1808L172.422 0.773438V49.1684H180.651V13.9313L205.663 49.1684H214.584V1.1808H205.744V30.8777Z" fill="white"/>
<path d="M240.736 29.6565H262.326V20.45H240.736V9.93999H265.096V1.18164H230.715V49.1692H267.704V40.0035H240.736V29.6565Z" fill="white"/>
<path d="M289.948 40.2479V1.18164H279.805V49.1692H315.001V40.2479H289.948Z" fill="white"/>
</g>
<defs>
<clipPath id="clip0_292_4065">
<rect width="314.241" height="49.78" fill="white" transform="translate(0.757812)"/>
</clipPath>
</defs>
</svg>
