<svg width="33" height="33" viewBox="0 0 33 33" fill="none" xmlns="http://www.w3.org/2000/svg">
<path d="M28.464 0.597656C29.407 0.597656 30.3113 0.972258 30.9781 1.63905C31.6449 2.30585 32.0195 3.21022 32.0195 4.15321V29.0421C32.0195 29.9851 31.6449 30.8895 30.9781 31.5563C30.3113 32.2231 29.407 32.5977 28.464 32.5977H3.57509C2.63209 32.5977 1.72773 32.2231 1.06093 31.5563C0.394133 30.8895 0.0195313 29.9851 0.0195312 29.0421V4.15321C0.0195312 3.21022 0.394133 2.30585 1.06093 1.63905C1.72773 0.972258 2.63209 0.597656 3.57509 0.597656H28.464ZM27.5751 28.1532V18.731C27.5751 17.1939 26.9645 15.7198 25.8776 14.6329C24.7907 13.546 23.3166 12.9354 21.7795 12.9354C20.2684 12.9354 18.5084 13.8599 17.6551 15.2465V13.2732H12.6951V28.1532H17.6551V19.3888C17.6551 18.0199 18.7573 16.8999 20.1262 16.8999C20.7863 16.8999 21.4194 17.1621 21.8861 17.6289C22.3529 18.0956 22.6151 18.7287 22.6151 19.3888V28.1532H27.5751ZM6.91731 10.4821C7.70942 10.4821 8.46909 10.1674 9.0292 9.60733C9.58931 9.04722 9.90398 8.28755 9.90398 7.49543C9.90398 5.8421 8.57064 4.49099 6.91731 4.49099C6.12048 4.49099 5.35629 4.80753 4.79285 5.37097C4.2294 5.93441 3.91286 6.69861 3.91286 7.49543C3.91286 9.14877 5.26398 10.4821 6.91731 10.4821ZM9.38842 28.1532V13.2732H4.46398V28.1532H9.38842Z" fill="black"/>
</svg>
