<svg width="32" height="33" viewBox="0 0 32 33" fill="none" xmlns="http://www.w3.org/2000/svg">
<path d="M17.6448 0.597656C19.4447 0.602456 20.3583 0.612056 21.147 0.634455L21.4574 0.645655C21.8158 0.658455 22.1694 0.674454 22.5966 0.693654C24.2989 0.773652 25.4604 1.04245 26.4796 1.43764C27.5355 1.84403 28.4251 2.39441 29.3146 3.28239C30.1285 4.08194 30.7581 5.0495 31.1593 6.11752C31.5545 7.1367 31.8233 8.29827 31.9033 10.0022C31.9225 10.4278 31.9385 10.7814 31.9513 11.1414L31.9609 11.4518C31.9849 12.239 31.9945 13.1526 31.9977 14.9525L31.9993 16.1461V18.242C32.0032 19.409 31.9909 20.5761 31.9625 21.7427L31.9529 22.0531C31.9401 22.4131 31.9241 22.7667 31.9049 23.1923C31.8249 24.8963 31.5529 26.0562 31.1593 27.077C30.7581 28.145 30.1285 29.1126 29.3146 29.9121C28.5151 30.726 27.5476 31.3556 26.4796 31.7569C25.4604 32.1521 24.2989 32.4209 22.5966 32.5009L21.4574 32.5489L21.147 32.5585C20.3583 32.5809 19.4447 32.5921 17.6448 32.5953L16.4513 32.5969H14.357C13.1895 32.601 12.0219 32.5887 10.8548 32.5601L10.5444 32.5505C10.1646 32.5361 9.78485 32.5196 9.40524 32.5009C7.70292 32.4209 6.54138 32.1521 5.52063 31.7569C4.45321 31.3554 3.48624 30.7258 2.68717 29.9121C1.87273 29.1128 1.24262 28.1452 0.840868 27.077C0.445688 26.0578 0.176901 24.8963 0.0969051 23.1923L0.0489076 22.0531L0.0409082 21.7427C0.0114153 20.5761 -0.00191877 19.4091 0.000910029 18.242V14.9525C-0.00351838 13.7855 0.00821561 12.6185 0.0361084 11.4518L0.0473078 11.1414C0.0601071 10.7814 0.0761063 10.4278 0.0953053 10.0022C0.175301 8.29827 0.444088 7.1383 0.839268 6.11752C1.24196 5.04907 1.87317 4.08147 2.68877 3.28239C3.48738 2.46889 4.45379 1.83934 5.52063 1.43764C6.54138 1.04245 7.70132 0.773652 9.40524 0.693654C9.83081 0.674454 10.186 0.658455 10.5444 0.645655L10.8548 0.636055C12.0214 0.607628 13.1884 0.595361 14.3554 0.599256L17.6448 0.597656ZM16.0001 8.59746C13.8785 8.59746 11.8438 9.4403 10.3435 10.9406C8.84332 12.4408 8.00051 14.4756 8.00051 16.5973C8.00051 18.719 8.84332 20.7537 10.3435 22.254C11.8438 23.7542 13.8785 24.5971 16.0001 24.5971C18.1217 24.5971 20.1565 23.7542 21.6567 22.254C23.1569 20.7537 23.9997 18.719 23.9997 16.5973C23.9997 14.4756 23.1569 12.4408 21.6567 10.9406C20.1565 9.4403 18.1217 8.59746 16.0001 8.59746ZM16.0001 11.7974C16.6304 11.7973 17.2546 11.9213 17.837 12.1624C18.4193 12.4036 18.9485 12.757 19.3943 13.2027C19.8401 13.6483 20.1937 14.1774 20.435 14.7597C20.6763 15.342 20.8006 15.9661 20.8007 16.5965C20.8008 17.2268 20.6767 17.851 20.4356 18.4334C20.1945 19.0158 19.841 19.5449 19.3954 19.9907C18.9498 20.4365 18.4207 20.7902 17.8384 21.0315C17.2561 21.2728 16.632 21.397 16.0017 21.3972C14.7287 21.3972 13.5079 20.8915 12.6078 19.9913C11.7076 19.0911 11.2019 17.8703 11.2019 16.5973C11.2019 15.3243 11.7076 14.1034 12.6078 13.2032C13.5079 12.3031 14.7287 11.7974 16.0017 11.7974M24.4013 6.19752C23.8709 6.19752 23.3622 6.40823 22.9871 6.78329C22.6121 7.15836 22.4014 7.66705 22.4014 8.19747C22.4014 8.72789 22.6121 9.23659 22.9871 9.61165C23.3622 9.98672 23.8709 10.1974 24.4013 10.1974C24.9317 10.1974 25.4404 9.98672 25.8154 9.61165C26.1905 9.23659 26.4012 8.72789 26.4012 8.19747C26.4012 7.66705 26.1905 7.15836 25.8154 6.78329C25.4404 6.40823 24.9317 6.19752 24.4013 6.19752Z" fill="black"/>
</svg>
