<svg width="32" height="31" viewBox="0 0 32 31" fill="none" xmlns="http://www.w3.org/2000/svg">
<path d="M15.9985 0.894531C24.8366 0.894531 32 6.47777 32 13.3669C32 20.2545 24.8366 25.8378 16 25.8378C15.1202 25.8362 14.2413 25.7802 13.3684 25.6702L6.65143 30.0633C5.888 30.4671 5.61829 30.4229 5.93219 29.434L7.29143 23.8294C2.90286 21.6046 0 17.7494 0 13.3669C0 6.47929 7.1619 0.894531 16 0.894531M25.0027 13.1764L27.2427 11.0065C27.3719 10.8723 27.444 10.6931 27.4438 10.5068C27.4436 10.3204 27.371 10.1415 27.2415 10.0075C27.1119 9.87361 26.9354 9.79521 26.7492 9.78884C26.5629 9.78247 26.3815 9.84863 26.243 9.97339L23.3051 12.8168V10.4671C23.3051 10.2763 23.2294 10.0934 23.0945 9.95853C22.9596 9.82364 22.7767 9.74787 22.5859 9.74787C22.3952 9.74787 22.2122 9.82364 22.0773 9.95853C21.9424 10.0934 21.8667 10.2763 21.8667 10.4671V14.3635C21.8413 14.4748 21.8413 14.5904 21.8667 14.7018V16.8945C21.8667 17.0853 21.9424 17.2682 22.0773 17.4031C22.2122 17.538 22.3952 17.6138 22.5859 17.6138C22.7767 17.6138 22.9596 17.538 23.0945 17.4031C23.2294 17.2682 23.3051 17.0853 23.3051 16.8945V14.8176L23.9558 14.1882L26.1318 17.2861C26.1861 17.3635 26.2552 17.4294 26.335 17.48C26.4148 17.5307 26.5037 17.5652 26.5969 17.5814C26.69 17.5977 26.7854 17.5955 26.8776 17.5749C26.9698 17.5543 27.0571 17.5157 27.1345 17.4614C27.2118 17.4071 27.2777 17.338 27.3284 17.2582C27.379 17.1784 27.4135 17.0895 27.4298 16.9963C27.446 16.9032 27.4438 16.8078 27.4232 16.7156C27.4026 16.6234 27.364 16.5361 27.3097 16.4587L25.0027 13.1764ZM20.4952 16.1082H18.2705V10.49C18.262 10.3051 18.1825 10.1307 18.0487 10.0029C17.9149 9.87512 17.737 9.80382 17.552 9.80382C17.367 9.80382 17.1891 9.87512 17.0553 10.0029C16.9215 10.1307 16.842 10.3051 16.8335 10.49V16.8275C16.8335 17.2237 17.1535 17.5467 17.5512 17.5467H20.4952C20.686 17.5467 20.8689 17.4709 21.0038 17.3361C21.1387 17.2012 21.2145 17.0182 21.2145 16.8275C21.2145 16.6367 21.1387 16.4538 21.0038 16.3189C20.8689 16.184 20.686 16.1082 20.4952 16.1082ZM11.5703 14.4458L12.6309 11.8431L13.603 14.4442L11.5703 14.4458ZM15.4149 15.1879L15.4179 15.1635C15.4174 14.9823 15.3482 14.8081 15.2244 14.6759L13.6305 10.4092C13.5637 10.2059 13.4364 10.0278 13.2657 9.89871C13.0949 9.76965 12.8889 9.69576 12.675 9.68691C12.4598 9.68681 12.2496 9.75182 12.072 9.87338C11.8944 9.99495 11.7578 10.1674 11.68 10.3681L9.14743 16.5776C9.07529 16.7542 9.07626 16.9522 9.15014 17.1281C9.22401 17.304 9.36472 17.4433 9.54133 17.5155C9.71794 17.5876 9.91597 17.5867 10.0919 17.5128C10.2678 17.4389 10.4071 17.2982 10.4792 17.1216L10.9851 15.8827H14.1394L14.5935 17.1018C14.6245 17.1929 14.6734 17.2769 14.7375 17.3487C14.8015 17.4206 14.8793 17.4789 14.9662 17.5201C15.0532 17.5614 15.1476 17.5847 15.2437 17.5889C15.3399 17.593 15.4359 17.5778 15.526 17.5441C15.6162 17.5104 15.6987 17.459 15.7686 17.3929C15.8386 17.3268 15.8945 17.2473 15.9332 17.1592C15.9718 17.071 15.9924 16.976 15.9937 16.8798C15.9949 16.7836 15.9769 16.688 15.9406 16.5989L15.4149 15.1879ZM10.3512 10.4976C10.3516 10.4031 10.3334 10.3096 10.2975 10.2222C10.2615 10.1349 10.2087 10.0555 10.142 9.98864C10.0753 9.9218 9.99604 9.8688 9.90877 9.83271C9.8215 9.79662 9.72796 9.77814 9.63352 9.77834H4.68876C4.49801 9.77834 4.31507 9.85412 4.18018 9.989C4.0453 10.1239 3.96952 10.3068 3.96952 10.4976C3.96952 10.6883 4.0453 10.8713 4.18018 11.0062C4.31507 11.141 4.49801 11.2168 4.68876 11.2168H6.45638V16.9098C6.45638 17.1005 6.53216 17.2835 6.66704 17.4183C6.80192 17.5532 6.98487 17.629 7.17562 17.629C7.36637 17.629 7.54931 17.5532 7.6842 17.4183C7.81908 17.2835 7.89486 17.1005 7.89486 16.9098V11.2168H9.632C9.72657 11.2172 9.82027 11.1989 9.90772 11.1629C9.99516 11.1269 10.0746 11.0739 10.1415 11.0071C10.2083 10.9402 10.2613 10.8607 10.2973 10.7733C10.3333 10.6859 10.3516 10.5921 10.3512 10.4976Z" fill="black"/>
</svg>
