<svg width="320" height="36" viewBox="0 0 320 36" fill="none" xmlns="http://www.w3.org/2000/svg">
<g clip-path="url(#clip0_488_4875)">
<path fill-rule="evenodd" clip-rule="evenodd" d="M320 32.0479V33.1986H309.797V32.0479C312.687 32.0479 312.425 31.1849 312.425 27.1575V6.25342C312.425 4.5274 312.425 3.37671 312.162 3.08904C311.899 1.65068 311.374 1.65068 309.535 1.65068V0.5H320V1.65068C317.11 1.65068 317.373 2.5137 317.373 6.25342V27.2055C317.373 30.9452 317.11 32.0959 320 32.0959V32.0479ZM289.042 33.4863C278.051 33.4863 278.84 31.4726 277.263 28.5959C275.161 25.1438 273.322 20.2534 269.644 20.2534H260.449V29.6986C260.712 32 261.5 32 263.339 32V33.4384H252.874V32C254.187 32.2877 255.501 32.2877 255.501 30.5616V4.81507C255.501 2.5137 254.713 1.93836 252.874 1.93836V0.787671H266.229C270.695 0.787671 273.848 0.787671 275.906 1.36301C280.635 2.5137 283.525 5.10274 283.525 9.41781C283.525 13.7329 281.686 17.1849 274.111 18.5753C279.102 19.4384 279.628 21.7397 281.467 25.1918C283.569 29.2192 284.357 32.3836 289.042 32.3836V33.5342V33.4863ZM260.493 16.8493C264.434 16.8493 269.951 17.137 273.585 16.274C275.424 15.411 278.051 14.2603 278.051 9.65753C278.051 6.49315 276.475 5.34247 274.636 4.47945C271.483 2.75342 264.959 3.32877 260.493 3.32877V16.8014V16.8493ZM224.061 25.1918H206.502L204.663 28.3562C204.138 29.7945 203.612 30.6575 203.612 31.2329C203.875 32.6712 204.401 32.9589 206.24 32.6712V33.8219H196.782V32.9589C198.883 32.9589 199.409 32.0959 199.934 30.9452C200.197 29.7945 200.722 29.2192 202.036 26.9178L214.122 1.36301H218.062L230.892 27.2055C233.257 31.8082 232.994 32.6712 235.621 32.6712V33.8219H224.893V32.6712C227.258 32.3836 227.783 31.5205 226.47 29.2192L224.105 25.1918H224.061ZM222.748 21.4521L215.129 6.25342L208.035 21.4521H222.704H222.748ZM184.215 20.0137C181.325 20.0137 181.062 20.0137 181.062 23.1781L181.325 27.7808C179.748 31.2329 175.545 33.2466 172.392 34.1096C170.027 34.6849 167.137 35.2603 164.554 35.2603C157.723 35.2603 152.25 33.5342 148.309 29.7945C144.893 26.9178 142.791 22.8904 142.791 18.6233C142.791 13.7329 144.893 9.46575 149.097 6.0137C153.038 2.56164 157.986 0.835616 164.291 0.835616C166.656 0.835616 169.283 1.41096 171.648 1.9863C174.012 2.56164 176.377 3.42466 178.216 4.57534L179.792 12.0548L179.004 12.3425C177.953 10.0411 175.326 7.16438 173.005 5.72603C170.903 4.28767 167.75 3.42466 164.598 3.42466C160.92 3.42466 157.241 4.86301 155.14 6.58904C151.724 9.17808 148.834 13.2055 148.834 18.0479C148.834 23.226 151.461 27.2534 154.351 29.2192C156.979 31.2329 160.394 32.3836 164.554 32.3836C167.181 32.3836 169.808 31.5205 171.385 30.9452C172.961 30.3699 175.063 29.2192 176.114 27.2055V24.3288C176.114 23.4658 176.114 20.8767 175.588 20.3014C174.8 19.726 174.012 20.0137 172.961 20.0137V18.5753H184.215V20.0137ZM112.447 2.22603V3.08904C111.133 3.08904 110.87 3.08904 110.345 3.66438C110.082 3.95205 109.819 4.5274 109.819 5.96575V31.2329H123.7C127.378 31.2329 129.743 29.2192 130.794 27.4932L131.845 27.7808L128.692 34.6849H102.244V33.5342C104.083 33.5342 104.871 33.2466 104.871 31.2329C104.871 17.7603 104.871 24.6164 104.871 22.8904V7.40411C104.871 5.67808 104.871 4.5274 104.346 3.95205C103.82 3.37671 103.558 3.08904 101.981 3.08904V2.22603H112.447ZM57.6683 2.22603V3.66438C56.0919 3.66438 54.7783 3.95205 55.5665 6.25342C55.8292 6.82877 56.6174 7.97945 57.1429 9.41781L67.0826 29.7945C68.1335 26.6301 78.0733 6.5411 78.3361 5.10274C78.5988 3.37671 75.9715 3.66438 75.9715 3.66438V2.5137L84.8604 2.22603V3.66438C84.0722 3.66438 83.0213 3.37671 82.7586 3.95205C81.9704 4.81507 80.3941 8.5548 78.2923 13.1575C74.8768 20.0616 70.6732 29.2192 68.0898 34.9726H63.8862L51.3191 8.84247C50.2682 6.5411 49.48 4.5274 48.6918 3.95205C48.1664 3.66438 47.9037 3.66438 46.8528 3.66438V2.22603H57.5807H57.6683ZM24.3897 17.7123C27.017 18 29.3815 18.863 30.6951 19.726C32.2715 20.589 34.1106 22.0274 34.1106 26.3425C34.1106 29.7945 32.0088 32.0959 30.6951 32.6712C27.8051 35.2603 20.7553 35.5479 16.289 35.5479H0.262726V34.3973C1.57635 34.3973 1.83908 34.1096 2.62726 33.5342C2.88998 32.9589 2.88998 31.2329 2.88998 29.2192V7.69178C2.88998 5.67808 2.62726 4.81507 2.10181 4.5274C1.31363 3.95205 1.0509 3.95205 0 3.95205V2.80137H20.9743C25.1779 3.08904 30.3886 4.81507 30.3886 10.2808C30.3886 12.5822 29.6004 14.5959 28.2868 15.7466C26.9732 16.6096 26.4477 16.8973 24.3459 17.7603L24.3897 17.7123ZM7.88177 16.8493H14.7126C17.6026 16.8493 21.5435 16.8493 23.6453 14.8356C24.6962 13.9726 25.7471 11.9589 25.7471 10.8082C25.7471 8.79452 25.2217 7.93151 23.3826 6.78082C21.5435 5.34247 17.6026 5.63014 14.231 5.63014H7.92556V16.8014L7.88177 16.8493ZM7.88177 31.7603H16.0263C22.069 31.7603 28.3306 31.4726 28.3306 26.0068C28.3306 24.2808 27.2797 22.5548 25.9661 21.6918C23.6015 19.6781 19.9234 19.6781 14.7126 19.6781H7.88177V31.7123V31.7603Z" fill="white"/>
</g>
<defs>
<clipPath id="clip0_488_4875">
<rect width="320" height="35" fill="white" transform="translate(0 0.5)"/>
</clipPath>
</defs>
</svg>
