<svg width="39" height="27" viewBox="0 0 39 27" fill="none" xmlns="http://www.w3.org/2000/svg">
<path d="M16.1805 19.1691L26.0415 13.5977L16.1805 8.02623V19.1691ZM38.1445 4.62766C38.3915 5.50051 38.5625 6.67051 38.6765 8.15623C38.8095 9.64194 38.8665 10.9234 38.8665 12.0377L38.9805 13.5977C38.9805 17.6648 38.6765 20.6548 38.1445 22.5677C37.6695 24.2391 36.5675 25.3162 34.8575 25.7805C33.9645 26.0219 32.3305 26.1891 29.8225 26.3005C27.3525 26.4305 25.0915 26.4862 23.0015 26.4862L19.9805 26.5977C12.0195 26.5977 7.06047 26.3005 5.10347 25.7805C3.39347 25.3162 2.29147 24.2391 1.81647 22.5677C1.56947 21.6948 1.39847 20.5248 1.28447 19.0391C1.15147 17.5534 1.09447 16.2719 1.09447 15.1577L0.980469 13.5977C0.980469 9.53051 1.28447 6.54051 1.81647 4.62766C2.29147 2.95623 3.39347 1.87908 5.10347 1.4148C5.99647 1.17337 7.63047 1.00623 10.1385 0.894799C12.6085 0.764799 14.8695 0.709085 16.9595 0.709085L19.9805 0.597656C27.9415 0.597656 32.9005 0.894799 34.8575 1.4148C36.5675 1.87908 37.6695 2.95623 38.1445 4.62766Z" fill="black"/>
</svg>
